<svg width="16mm" height="16mm" viewBox="0 0 16 16" xml:space="preserve" xmlns="http://www.w3.org/2000/svg"><path d="m73.92 60.037-10.583-5.292v-9.26l10.583-5.292 10.584 5.292v9.26z" class="UnoptimicedTransforms" style="fill:#fc7f7f;fill-opacity:1;stroke:none" transform="translate(-35.304 -20.254) scale(.58583)"/><path style="color:#000;fill:#ffca5f;fill-rule:evenodd;stroke-width:.585828;-inkscape-stroke:none" d="m7.654 2.81-6.44 3.22v6.15L8 15.571l.262-.13 6.524-3.263V6.03l-6.44-3.218v.43h-.692ZM8 3.947l4.819 2.41L8 8.466 3.181 6.358Zm-5.614 3.34 5.027 2.2v4.483l-5.028-2.515Zm11.228 0v4.168L8.585 13.97V9.487Z"/><path style="fill:none;fill-opacity:1;fill-rule:evenodd;stroke:none;stroke-width:2;stroke-linecap:butt;stroke-linejoin:miter;stroke-dasharray:none;stroke-opacity:1;paint-order:normal" d="m73.92 60.037-10.583-5.292v-9.26l10.583-5.292 10.584 5.292v9.26z" class="UnoptimicedTransforms" transform="translate(-35.304 -20.254) scale(.58583)"/><path style="color:#000;fill:#8da5f3;fill-rule:evenodd;stroke-width:.585828;-inkscape-stroke:none" d="m4.9 4.188-1.311.655 3.1 1.548L4.315 7.58v6.15l1.17.587V8.303L8 7.048l2.514 1.256v6.01l1.172-.585v-6.15L9.311 6.391l3.1-1.548-1.31-.655L8 5.738z"/><path style="fill:none;fill-opacity:1;fill-rule:evenodd;stroke:#5c73b7;stroke-width:1.17166;stroke-linecap:butt;stroke-linejoin:round;stroke-dasharray:none;stroke-opacity:1;paint-order:normal" d="M8.035 6.053c-1.168-.602-2.336-1.2-2.997-2.038-.66-.839-.816-1.919-.378-2.525.436-.608 1.462-.742 2.124.098.66.838.955 2.652 1.25 4.466zm0 .001c.195-1.368.39-2.735.817-3.426.43-.69 1.09-.704 1.64-.44.55.262.989.804.561 1.495-.429.69-1.722 1.532-3.018 2.37Z"/></svg>