<svg width="16mm" height="16mm" viewBox="0 0 16 16" xml:space="preserve" xmlns="http://www.w3.org/2000/svg"><path style="color:#000;fill:#000;fill-rule:evenodd;stroke:none;stroke-width:1.1512;stroke-dasharray:none;stroke-opacity:1;-inkscape-stroke:none" d="M5.536.405C4.09.365 3.003 1.87 3.302 3.245c.038.24.13.482.182.67.021.075-.04.16-.136.23l-.003.001-.304.152-.03.014a.536.536 0 0 0-.138.07l-1.819.91-.03.017-.029.02-.027.022-.025.023L.92 5.4l-.021.029-.018.03-.016.03-.013.032-.01.034-.008.034-.004.034-.002.035v6.158l.002.035.004.034.008.034.01.034.013.032.016.03.018.03.02.028.024.027.025.023.027.022.029.02.03.016 2.82 1.41v.003l.907.451 2.993 1.498.033.014.034.013.034.01.035.008.036.005.036.003h.036l.036-.003.036-.005.035-.008.034-.01.034-.013.033-.014 1.74-.871 2.16-1.08 2.82-1.41.03-.017.029-.02.027-.022.025-.024.023-.026.021-.028.018-.03.016-.03.013-.032.01-.034.008-.034.004-.034.002-.035V5.658l-.002-.035-.004-.034-.008-.034-.01-.034-.013-.032-.016-.03-.018-.03-.02-.029-.024-.026-.025-.023-.027-.023-.029-.019-.03-.016c-.551-.276-1.102-.553-1.654-.828a3.25 3.25 0 0 0-.018-.01l-1.067-.533c-.05-.052-.07-.117-.084-.234.134-1.88-2.532-3.012-3.855-1.737l-.042-.021-.033-.015-.034-.012-.034-.01-.035-.009-.036-.005-.036-.002h-.036l-.036.002-.035.006-.035.007-.035.01c-.09-.14-.223-.4-.29-.51C7.077.777 6.318.386 5.536.405Zm.032.504a1.992 1.992 0 0 1 1.578.783c.198.252.361.544.499.866L8 2.381l.377.189c.27-.338.628-.558.998-.631.436-.087.856.01 1.21.18.355.17.702.43.904.842.164.335.18.772.024 1.177l.717.359 2.437 1.219v6.041l-3.045 1.523-1.151.576-2.214 1.107L8 15.09l-2.47-1.235-1.151-.575v-.001l-3.046-1.523v-6.04l2.436-1.22h.001l.42-.21c-.5-.886-.6-1.908-.052-2.67.327-.455.867-.705 1.43-.707Zm-.005 1.116zm0 0zm-.08.008zm-.07.016zm-.087.033zm-.253.206zm-.03.049zm-.022.048zm1.219.019zM5 2.447zm-.013.05zm1.318 0zm-1.333.08-.004.033.004-.032zm1.41.057zm-1.42.039L4.96 2.7l.002-.028zm1.48.086zm-1.484.037.001.034-.001-.034zm.005.098zm1.544.02ZM4.974 3l.007.053L4.974 3zm4.729.057H9.69h.02-.007zm.007 0 .043.005.05.007.049.01.048.01.049.014.048.017.046.018.046.02.044.023.044.024.043.027.029.02a1.053 1.053 0 0 0-.16-.096.923.923 0 0 0-.379-.098Zm-.046.002-.021.001.02-.001zm-.139.027a.414.414 0 0 0-.062.026h.001l.025-.012.026-.01zM5 3.155zm.02.09zm.028.096Zm.032.097Zm5.183-.176.013.01.004.003-.017-.013zm.017.013zm.121.113zm.027.034.016.033.013.034.009.035.005.037.002.036-.001.02.015.007c.017-.066-.004-.102-.03-.156a.34.34 0 0 0-.03-.046zm-5.31.117.018.043-.018-.043z"/><path d="m73.92 60.037-10.583-5.292v-9.26l10.583-5.292 10.584 5.292v9.26z" class="UnoptimicedTransforms" style="fill:#fc7f7f;fill-opacity:1;stroke:none" transform="translate(-34.549 -20.11) scale(.5756)"/><path style="fill:none;fill-opacity:1;fill-rule:evenodd;stroke:none;stroke-width:2;stroke-linecap:butt;stroke-linejoin:miter;stroke-dasharray:none;stroke-opacity:1;paint-order:normal" d="m73.92 60.037-10.583-5.292v-9.26l10.583-5.292 10.584 5.292v9.26z" class="UnoptimicedTransforms" transform="translate(-34.549 -20.11) scale(.5756)"/><path style="color:#000;fill:#ffca5f;fill-rule:evenodd;stroke-width:.575602;-inkscape-stroke:none" d="M8 2.381 1.333 5.716v6.041L8 15.091l.257-.128 6.41-3.206V5.716ZM8 3.67l4.735 2.368L8 8.107l-4.735-2.07Zm5.516 3.282v4.095l-4.94 2.47V9.113Zm-11.032 0 4.94 2.162v4.403l-4.94-2.47Z"/><path style="color:#000;fill:#8da5f3;fill-rule:evenodd;stroke:#000;stroke-width:0;stroke-dasharray:none;stroke-opacity:1" d="M5.569.909c-.564.002-1.103.251-1.431.707-.548.762-.447 1.784.052 2.67l-.42.21 1.008.584c.53.558 1.209.983 1.918 1.367L4.379 7.78v5.5l1.15.576V8.284L8 6.941l2.472 1.343v5.572l1.151-.576v-5.5L9.115 6.343c.16-.106.318-.213.472-.32l2.643-1.526-.717-.359c.157-.405.14-.842-.024-1.177-.202-.412-.549-.673-.904-.843-.354-.17-.774-.266-1.21-.18-.438.087-.859.38-1.138.83-.121.2-.223.41-.303.63-.184-.661-.429-1.25-.788-1.706A1.992 1.992 0 0 0 5.568.91Zm-.006 1.116c.21-.008.451.092.677.379.33.42.603 1.53.846 2.768l-1.367-.79c-.11-.1-.208-.201-.29-.305-.527-.67-.558-1.507-.356-1.789a.644.644 0 0 1 .49-.263Zm4.14 1.033c.112 0 .246.032.386.1.185.088.324.222.367.31.044.089.071.128-.058.336-.128.207-.51.573-1.018.95-.163.122-.387.26-.572.387.133-.66.247-1.51.407-1.767.141-.228.255-.282.383-.307a.52.52 0 0 1 .105-.009z"/></svg>