<svg width="16mm" height="16mm" viewBox="0 0 16 16" xml:space="preserve" xmlns="http://www.w3.org/2000/svg"><path style="fill:none;stroke:#000;stroke-width:1.11748;stroke-dasharray:none" d="M5.617.893a1.705 1.705 0 0 0-1.175.577 2.061 2.061 0 0 0-.155.214c-.49.792-.312 1.837.258 2.704a.113.113 0 0 1-.044.168l-.59.296a1497.06 1497.06 153.424 0 1-.236.118L1.646 5.984a.214.214 121.715 0 0-.118.192v5.6a.214.214 58.284 0 0 .118.191l2.72 1.36a1860.785 1860.785 26.563 0 0 .237.118l.88.44a1750.75 1750.75 26.563 0 1 .238.12l2.16 1.08a.265.265.041 0 0 .237 0l.013-.007a198.831 198.831 153.476 0 0 .237-.118l1.912-.956a4866.022 4866.022 153.436 0 0 .237-.118l.88-.44a.126.126 153.323 0 0 .119-.06l2.838-1.419a.214.214 121.717 0 0 .118-.191v-5.6a.214.214 58.286 0 0-.118-.192l-2.957-1.478c-.065-.033-.083-.107-.043-.168.019-.028.064-.101.098-.166.197-.386.22-.82.095-1.17a1.619 1.619 0 0 0-.114-.238 1.793 1.793 0 0 0-.697-.64 2.947 2.947 0 0 0-.238-.115 1.864 1.864 0 0 0-.924-.142 1.846 1.846 0 0 0-.26.052c-.34.1-.663.33-.902.663a2.78 2.78 0 0 0-.14.225.132.132 0 0 1-.176.048.215.215.162 0 0-.192 0c-.18-.488-.343-.817-.547-1.101a3.026 3.026 0 0 0-.164-.207A1.926 1.926 0 0 0 5.75.887z"/><path d="m73.92 60.037-10.583-5.292v-9.26l10.583-5.292 10.584 5.292v9.26z" class="UnoptimicedTransforms" style="fill:#fc7f7f;fill-opacity:1;stroke:none" transform="translate(-33.302 -19.025) scale(.55874)"/><path style="fill:none;fill-opacity:1;fill-rule:evenodd;stroke:none;stroke-width:2;stroke-linecap:butt;stroke-linejoin:miter;stroke-dasharray:none;stroke-opacity:1;paint-order:normal" d="m73.92 60.037-10.583-5.292v-9.26l10.583-5.292 10.584 5.292v9.26z" class="UnoptimicedTransforms" transform="translate(-33.302 -19.025) scale(.55874)"/><path style="color:#000;fill:#ffca5f;fill-rule:evenodd;stroke-width:.558739;-inkscape-stroke:none" d="M8 2.807 1.528 6.043v5.865L8 15.144l.25-.125 6.222-3.111V6.043Zm0 1.25 4.596 2.298L8 8.365l-4.596-2.01Zm5.354 3.186v3.974l-4.796 2.398V9.341Zm-10.708 0L7.44 9.341v4.274l-4.795-2.398z"/><path style="color:#000;fill:#8da5f3;fill-rule:evenodd;stroke-width:.558739;-inkscape-stroke:none" d="m5.043 4.286-1.25.625L6.75 6.388 4.485 7.521v5.865l1.117.559V8.212L8 7.014l2.398 1.198v5.733l1.118-.559V7.521L9.25 6.388l2.957-1.477-1.25-.625-2.956 1.478H8z"/><path style="fill:none;fill-opacity:1;fill-rule:evenodd;stroke:#5c73b7;stroke-width:1.11748;stroke-linecap:butt;stroke-linejoin:round;stroke-dasharray:none;stroke-opacity:1;paint-order:normal" d="M8.033 6.254C6.919 5.68 5.805 5.109 5.175 4.309c-.63-.8-.778-1.83-.361-2.408.416-.58 1.395-.708 2.026.093.63.8.911 2.53 1.193 4.26Z"/><path style="fill:none;fill-opacity:1;fill-rule:evenodd;stroke:#5c73b7;stroke-width:1.11748;stroke-linecap:butt;stroke-linejoin:round;stroke-dasharray:none;stroke-opacity:1;paint-order:normal" d="M8.033 6.254c.186-1.304.372-2.608.78-3.267.41-.659 1.04-.672 1.564-.42.524.25.943.767.535 1.426-.409.658-1.644 1.46-2.88 2.26Z"/></svg>