<svg width="16mm" height="16mm" viewBox="0 0 16 16" xml:space="preserve" xmlns="http://www.w3.org/2000/svg"><path style="fill:none;stroke:#000;stroke-width:1.11748;stroke-dasharray:none" d="m5.75.887-.133.006a1.705 1.705 0 0 0-1.175.578 2.032 2.032 0 0 0-.155.213c-.49.792-.312 1.837.258 2.704a.113.113 0 0 1-.044.168l-.59.296-.236.119-2.03 1.013a.214.214 0 0 0-.117.192v5.6c0 .081.046.155.118.192l2.72 1.36.237.118.88.44.238.12 2.16 1.08a.265.265 0 0 0 .237 0l.013-.007.237-.119 1.912-.956.237-.118.88-.44a.126.126 0 0 0 .12-.06l2.837-1.418a.214.214 0 0 0 .118-.192v-5.6a.214.214 0 0 0-.118-.192l-2.957-1.477a.113.113 0 0 1-.043-.168 2.11 2.11 0 0 0 .098-.167c.197-.386.22-.82.095-1.17a1.619 1.619 0 0 0-.114-.237 1.793 1.793 0 0 0-.697-.64 2.947 2.947 0 0 0-.238-.115 1.864 1.864 0 0 0-.924-.143 1.846 1.846 0 0 0-.26.052c-.34.1-.663.33-.902.663a2.78 2.78 0 0 0-.14.225.132.132 0 0 1-.176.048.213.213 0 0 0-.018-.006l-.079-.038-.052.026-.025.013a.216.216 0 0 0-.018.005c-.18-.488-.343-.817-.547-1.1a3.026 3.026 0 0 0-.164-.207A1.926 1.926 0 0 0 5.75.888Z"/><path d="m73.92 60.037-10.583-5.292v-9.26l10.583-5.292 10.584 5.292v9.26z" class="UnoptimicedTransforms" style="fill:#fc7f7f;fill-opacity:1;stroke:none" transform="translate(-33.302 -19.025) scale(.55874)"/><path style="color:#000;fill:#ffca5f;fill-rule:evenodd;stroke-width:.558739;-inkscape-stroke:none" d="M7.67 2.972 1.528 6.043v5.865L8 15.144l.25-.124 6.222-3.112V6.043L8.33 2.973v.411h-.66ZM8 4.057l4.596 2.299L8 8.366l-4.596-2.01ZM2.646 7.243 7.44 9.341v4.275l-4.795-2.399Zm10.708 0v3.974l-4.796 2.399V9.34Z"/><path style="fill:none;fill-opacity:1;fill-rule:evenodd;stroke:none;stroke-width:2;stroke-linecap:butt;stroke-linejoin:miter;stroke-dasharray:none;stroke-opacity:1;paint-order:normal" d="m73.92 60.037-10.583-5.292v-9.26l10.583-5.292 10.584 5.292v9.26z" class="UnoptimicedTransforms" transform="translate(-33.302 -19.025) scale(.55874)"/><path style="color:#000;fill:#8da5f3;fill-rule:evenodd;stroke-width:.558739;-inkscape-stroke:none" d="m5.043 4.286-1.25.625L6.75 6.388 4.485 7.521v5.865l1.117.56V8.211L8 7.014l2.398 1.198v5.733l1.118-.559V7.521L9.25 6.388l2.957-1.477-1.25-.625-2.956 1.478H8z"/><path style="fill:none;fill-opacity:1;fill-rule:evenodd;stroke:#5c73b7;stroke-width:1.11748;stroke-linecap:butt;stroke-linejoin:round;stroke-dasharray:none;stroke-opacity:1;paint-order:normal" d="M8.033 6.254C6.919 5.68 5.805 5.11 5.175 4.31c-.63-.8-.778-1.83-.361-2.408.416-.58 1.395-.708 2.026.093.63.8.911 2.53 1.193 4.26z"/><path style="fill:none;fill-opacity:1;fill-rule:evenodd;stroke:#5c73b7;stroke-width:1.11748;stroke-linecap:butt;stroke-linejoin:round;stroke-dasharray:none;stroke-opacity:1;paint-order:normal" d="M8.033 6.254c.186-1.304.372-2.608.78-3.267.41-.659 1.04-.672 1.564-.42.524.25.943.767.535 1.426-.409.658-1.644 1.46-2.88 2.26z"/></svg>