<svg width="16mm" height="16mm" viewBox="0 0 16 16" xml:space="preserve" xmlns="http://www.w3.org/2000/svg"><path d="m73.92 60.037-10.583-5.292v-9.26l10.583-5.292 10.584 5.292v9.26z" class="UnoptimicedTransforms" style="fill:#fc7f7f;fill-opacity:1;stroke:none" transform="translate(-36.625 -21.481) scale(.60369)"/><path style="fill:none;fill-opacity:1;fill-rule:evenodd;stroke:none;stroke-width:2;stroke-linecap:butt;stroke-linejoin:miter;stroke-dasharray:none;stroke-opacity:1;paint-order:normal" d="m73.92 60.037-10.583-5.292v-9.26l10.583-5.292 10.584 5.292v9.26z" class="UnoptimicedTransforms" transform="translate(-36.625 -21.481) scale(.60369)"/><path style="color:#000;fill:#ffca5f;fill-rule:evenodd;-inkscape-stroke:none" d="m73.92 39.074-11.582 5.793v10.496l11.582 5.791.447-.222 11.137-5.569V44.867zm0 2.237 8.226 4.114-8.226 3.598-8.225-3.598zm9.584 5.702v7.114l-8.584 4.291V50.77zm-19.166 0 8.582 3.757v7.648l-8.582-4.291z" transform="translate(-36.625 -21.481) scale(.60369)"/><path style="color:#000;fill:#8da5f3;fill-rule:evenodd;stroke:none;stroke-width:2;stroke-dasharray:none;stroke-opacity:1;-inkscape-stroke:none" d="M69.697 36.516c-.98.003-1.917.437-2.486 1.228-.952 1.324-.777 3.1.09 4.64l-.73.365 1.752 1.013c.92.97 2.1 1.708 3.332 2.375l-4.026 2.317v9.555l2 1v-9.68l4.29-2.334 4.294 2.334v9.68l2-1v-9.556l-4.356-2.496c.279-.185.553-.37.82-.556l4.592-2.652-1.246-.623c.273-.703.244-1.462-.041-2.044-.351-.716-.953-1.17-1.57-1.465-.616-.295-1.345-.463-2.103-.312-.76.15-1.492.658-1.977 1.44-.21.347-.387.714-.526 1.095-.32-1.148-.745-2.17-1.37-2.963-.737-.935-1.76-1.364-2.74-1.361zm-.01 1.939c.365-.013.784.16 1.176.658.573.729 1.048 2.658 1.47 4.81l-2.376-1.373c-.19-.174-.36-.35-.502-.53-.917-1.165-.97-2.618-.62-3.108.177-.244.487-.444.852-.457zm7.192 1.795c.195 0 .428.056.67.172.322.154.563.388.638.54.076.154.124.223-.1.583-.222.36-.888.997-1.769 1.652-.284.212-.672.45-.994.672.232-1.146.43-2.624.707-3.07.246-.396.443-.49.666-.533a.903.903 0 0 1 .182-.016z" transform="translate(-36.625 -21.481) scale(.60369)"/></svg>